<svg width="36" height="36" viewBox="0 0 36 36" fill="none" xmlns="http://www.w3.org/2000/svg">
<g clip-path="url(#clip0_786_6630)">
<path d="M4.06416 27.0246L18.1588 35.1621L19.5073 34.3834L5.41275 26.246L4.06416 27.0246ZM17.3209 15.6914L3.22656 23.8288V25.5734L17.3209 17.4359V15.6914ZM17.3209 12.0119L3.22656 20.1493V21.8939L17.3209 13.7565V12.0119ZM7.08822 25.2786L21.1831 33.416L22.6941 32.5437L8.59942 24.4063L7.08822 25.2786ZM13.4612 21.5991L27.5561 29.7365L29.0671 28.8643L14.9721 20.7269L13.4612 21.5991ZM16.6479 19.7593L30.7425 27.8967L32.2534 27.0246L18.1588 18.8872L16.6479 19.7593ZM17.3209 8.33247L3.22656 16.4699V18.2145L17.3209 10.0771V8.33247ZM10.2749 23.4389L24.3695 31.5763L25.8804 30.7041L11.7857 22.5665L10.2749 23.4389ZM31.7431 8.5201V24.795L33.0913 25.5734V9.2984L31.7431 8.5201ZM17.3209 1.16064L3.22656 9.2984V10.8554L17.3209 2.71787V1.16064ZM17.3209 4.65285L3.22656 12.7904V14.535L17.3209 6.39756V4.65285ZM30.0669 7.5523L28.5564 6.68008V22.9551L30.0669 23.8273V7.5523ZM23.6939 3.87282L22.1834 3.00059V19.2758L23.6939 20.1479V3.87282ZM20.5075 2.033L18.9967 1.16064V17.4359L20.5075 18.3084V2.033ZM26.8806 5.71256L25.3697 4.8402V21.1155L26.8806 21.9877V5.71256Z" fill="black"/>
</g>
<defs>
<clipPath id="clip0_786_6630">
<rect width="34.5543" height="34.5543" fill="white" transform="translate(0.882812 0.884277)"/>
</clipPath>
</defs>
</svg>
