<svg width="37" height="36" viewBox="0 0 37 36" fill="none" xmlns="http://www.w3.org/2000/svg">
<g clip-path="url(#clip0_798_7227)">
<path d="M18.332 36C8.39243 36 0.332031 27.9396 0.332031 18C0.332031 8.0604 8.39243 0 18.332 0C28.2716 0 36.332 8.0604 36.332 18C36.332 27.9396 28.2716 36 18.332 36Z" fill="url(#paint0_linear_798_7227)"/>
<path d="M18.3334 7.92713C21.613 7.92713 22.0018 7.93793 23.2978 7.99914C24.4966 8.05313 25.1482 8.25473 25.5802 8.42393C26.1526 8.64714 26.563 8.91354 26.9914 9.34194C27.4198 9.77034 27.6862 10.1807 27.9094 10.7531C28.0786 11.1851 28.2766 11.8367 28.3342 13.0355C28.3918 14.3315 28.4062 14.7203 28.4062 17.9999C28.4062 21.2795 28.3954 21.6683 28.3342 22.9643C28.2802 24.1631 28.0786 24.8147 27.9094 25.2467C27.6862 25.8191 27.4198 26.2295 26.9914 26.6579C26.563 27.0863 26.1526 27.3527 25.5802 27.5759C25.1482 27.7451 24.4966 27.9431 23.2978 28.0007C22.0018 28.0583 21.613 28.0727 18.3334 28.0727C15.0538 28.0727 14.665 28.0619 13.369 28.0007C12.1702 27.9467 11.5186 27.7451 11.0866 27.5759C10.5142 27.3527 10.1038 27.0863 9.67537 26.6579C9.24697 26.2295 8.98057 25.8191 8.75737 25.2467C8.58817 24.8147 8.39017 24.1631 8.33257 22.9643C8.27497 21.6683 8.26057 21.2795 8.26057 17.9999C8.26057 14.7203 8.27137 14.3315 8.33257 13.0355C8.38657 11.8367 8.58817 11.1851 8.75737 10.7531C8.98057 10.1807 9.24697 9.77034 9.67537 9.34194C10.1038 8.91354 10.5142 8.64714 11.0866 8.42393C11.5186 8.25473 12.1702 8.05673 13.369 7.99914C14.665 7.93793 15.0538 7.92713 18.3334 7.92713ZM18.3334 5.71313C14.9962 5.71313 14.5786 5.72753 13.2682 5.78873C11.9614 5.84993 11.0686 6.05513 10.2838 6.36113C9.47737 6.67073 8.78977 7.09193 8.10937 7.77593C7.42537 8.45993 7.00777 9.14393 6.69097 9.95394C6.38857 10.7351 6.17977 11.6279 6.11857 12.9383C6.05737 14.2487 6.04297 14.6663 6.04297 18.0035C6.04297 21.3407 6.05737 21.7583 6.11857 23.0687C6.17977 24.3755 6.38497 25.2683 6.69097 26.0531C7.00417 26.8559 7.42537 27.5435 8.10937 28.2239C8.79337 28.9079 9.47737 29.3255 10.2874 29.6423C11.0686 29.9447 11.9614 30.1535 13.2718 30.2147C14.5822 30.2759 14.9998 30.2903 18.337 30.2903C21.6742 30.2903 22.0918 30.2759 23.4022 30.2147C24.709 30.1535 25.6018 29.9483 26.3866 29.6423C27.1894 29.3291 27.877 28.9079 28.5574 28.2239C29.2414 27.5399 29.659 26.8559 29.9758 26.0459C30.2782 25.2647 30.487 24.3719 30.5482 23.0615C30.6094 21.7511 30.6238 21.3335 30.6238 17.9963C30.6238 14.6591 30.6094 14.2415 30.5482 12.9311C30.487 11.6243 30.2818 10.7315 29.9758 9.94673C29.6626 9.14393 29.2414 8.45634 28.5574 7.77593C27.8734 7.09193 27.1894 6.67434 26.3794 6.35754C25.5982 6.05514 24.7054 5.84633 23.395 5.78513C22.0882 5.72753 21.6706 5.71313 18.3334 5.71313Z" fill="white"/>
<path d="M18.3342 11.6892C14.8494 11.6892 12.0234 14.5152 12.0234 18C12.0234 21.4848 14.8494 24.3108 18.3342 24.3108C21.819 24.3108 24.645 21.4848 24.645 18C24.645 14.5152 21.819 11.6892 18.3342 11.6892ZM18.3342 22.0968C16.0734 22.0968 14.2374 20.2644 14.2374 18C14.2374 15.7356 16.0734 13.9032 18.3342 13.9032C20.595 13.9032 22.431 15.7356 22.431 18C22.431 20.2644 20.595 22.0968 18.3342 22.0968Z" fill="white"/>
<path d="M24.894 12.9168C25.7091 12.9168 26.37 12.256 26.37 11.4408C26.37 10.6257 25.7091 9.96484 24.894 9.96484C24.0788 9.96484 23.418 10.6257 23.418 11.4408C23.418 12.256 24.0788 12.9168 24.894 12.9168Z" fill="white"/>
</g>
<defs>
<linearGradient id="paint0_linear_798_7227" x1="5.60412" y1="30.7279" x2="31.06" y2="5.27209" gradientUnits="userSpaceOnUse">
<stop stop-color="#FFD521"/>
<stop offset="0.055" stop-color="#FFD020"/>
<stop offset="0.124" stop-color="#FEC01E"/>
<stop offset="0.2" stop-color="#FCA71B"/>
<stop offset="0.282" stop-color="#FA8316"/>
<stop offset="0.368" stop-color="#F85510"/>
<stop offset="0.456" stop-color="#F51E09"/>
<stop offset="0.5" stop-color="#F30005"/>
<stop offset="0.503" stop-color="#F20007"/>
<stop offset="0.597" stop-color="#E1003B"/>
<stop offset="0.688" stop-color="#D30067"/>
<stop offset="0.776" stop-color="#C70088"/>
<stop offset="0.859" stop-color="#BF00A0"/>
<stop offset="0.936" stop-color="#BB00AF"/>
<stop offset="1" stop-color="#B900B4"/>
</linearGradient>
<clipPath id="clip0_798_7227">
<rect width="36" height="36" fill="white" transform="translate(0.332031)"/>
</clipPath>
</defs>
</svg>
