<svg width="36" height="36" viewBox="0 0 36 36" fill="none" xmlns="http://www.w3.org/2000/svg">
<g clip-path="url(#clip0_798_7256)">
<path d="M18 35.9998C27.9411 35.9998 36 27.9409 36 17.9998C36 8.05863 27.9411 -0.000244141 18 -0.000244141C8.05888 -0.000244141 0 8.05863 0 17.9998C0 27.9409 8.05888 35.9998 18 35.9998Z" fill="#007AB9"/>
<path d="M28.7532 19.4481V26.8691H24.4507V19.9455C24.4507 18.207 23.8295 17.0198 22.2717 17.0198C21.0829 17.0198 20.3766 17.8191 20.0647 18.593C19.9515 18.8696 19.9223 19.2537 19.9223 19.6416V26.8688H15.6195C15.6195 26.8688 15.6772 15.1424 15.6195 13.9286H19.9226V15.7623C19.9139 15.7768 19.9017 15.7909 19.894 15.8047H19.9226V15.7623C20.4944 14.8825 21.5141 13.6247 23.8003 13.6247C26.631 13.6247 28.7532 15.4742 28.7532 19.4481ZM11.1183 7.69092C9.64652 7.69092 8.68359 8.65705 8.68359 9.9264C8.68359 11.1688 9.6186 12.1628 11.0619 12.1628H11.0898C12.5905 12.1628 13.5236 11.1688 13.5236 9.9264C13.495 8.65705 12.5905 7.69092 11.1183 7.69092ZM8.93932 26.8691H13.2405V13.9286H8.93932V26.8691Z" fill="#F1F2F2"/>
</g>
<defs>
<clipPath id="clip0_798_7256">
<rect width="36" height="36" fill="white"/>
</clipPath>
</defs>
</svg>
