<svg width="31" height="31" viewBox="0 0 31 31" fill="none" xmlns="http://www.w3.org/2000/svg">
<g id="Clip path group">
<mask id="mask0_3230_175" style="mask-type:luminance" maskUnits="userSpaceOnUse" x="0" y="0" width="31" height="31">
<g id="a">
<path id="Vector" d="M31 15.5C31 19.6109 29.367 23.5533 26.4602 26.4602C23.5533 29.367 19.6109 31 15.5 31C11.3891 31 7.44666 29.367 4.53984 26.4602C1.63303 23.5533 0 19.6109 0 15.5C0 11.3891 1.63303 7.44666 4.53984 4.53984C7.44666 1.63303 11.3891 0 15.5 0C19.6109 0 23.5533 1.63303 26.4602 4.53984C29.367 7.44666 31 11.3891 31 15.5Z" fill="white"/>
</g>
</mask>
<g mask="url(#mask0_3230_175)">
<g id="Group">
<path id="Vector_2" d="M1.47892 -0.645813C0.301014 -0.645813 -0.646478 0.303764 -0.646478 1.48174V29.5203C-0.647179 29.7996 -0.592686 30.0763 -0.486129 30.3345C-0.379573 30.5927 -0.223054 30.8273 -0.0255623 31.0248C0.171929 31.2223 0.4065 31.3789 0.664675 31.4855C0.92285 31.5921 1.19954 31.6466 1.47885 31.6459H29.5175C30.6955 31.6459 31.6451 30.6984 31.6451 29.5205V1.4818C31.6451 0.303832 30.6955 -0.645745 29.5175 -0.645745L1.47892 -0.645813Z" fill="#479951"/>
<path id="Vector_3" fill-rule="evenodd" clip-rule="evenodd" d="M12.4867 7.77604C12.4643 7.77536 12.4308 7.78781 12.3839 7.81559C12.2786 7.88623 12.0696 8.10393 12.0633 8.35433C12.0569 8.4956 12.0302 8.49507 12.1227 8.58494C12.1895 8.68128 12.2563 8.67179 12.3911 8.60116C12.4686 8.54411 12.4947 8.50764 12.5209 8.41198C12.553 8.25146 12.3521 8.48793 12.3263 8.30932C12.2814 8.14342 12.4097 8.07521 12.5317 7.91469C12.5345 7.83914 12.5359 7.77752 12.4867 7.77604ZM14.4505 7.7868C14.4128 7.79185 14.3667 7.84015 14.3027 7.95613C14.2569 8.07763 14.0591 8.26156 14.2018 8.64078C14.3186 8.88129 14.3665 9.27202 14.3135 9.70742C14.2326 9.83113 14.2142 9.87372 14.1082 9.99744C13.9592 10.1577 13.7978 10.1167 13.6739 10.0569C13.5582 9.97887 13.4674 9.93891 13.4145 9.69113C13.4241 9.2963 13.4471 8.65 13.3748 8.51283C13.2685 8.30044 13.0931 8.37659 13.0181 8.44077C12.658 8.77008 12.4801 9.3261 12.3713 9.76857C12.2715 10.0911 12.165 9.99777 12.0902 9.86766C11.9083 9.69719 11.8955 8.36388 11.6758 8.58313C11.324 9.58861 11.8778 10.6901 12.2614 10.583C12.5382 10.6976 12.7138 10.1707 12.8272 9.59392C12.9046 9.43199 12.9639 9.41336 13.0037 9.49658C12.9935 10.2638 13.0587 10.4349 13.256 10.6677C13.6959 11.0071 14.0598 10.7107 14.0883 10.6821L14.4307 10.3398C14.5069 10.2595 14.6076 10.2547 14.7153 10.3253C14.82 10.4205 14.8066 10.5843 15.0307 10.6983C15.2192 10.7737 15.6219 10.7167 15.7153 10.5542C15.841 10.3387 15.8714 10.2647 15.9297 10.183C16.0194 10.0636 16.1729 10.1164 16.1729 10.1542C16.1586 10.2208 16.0684 10.2865 16.1296 10.4065C16.2363 10.4865 16.2612 10.4351 16.3243 10.4172C16.5475 10.3105 16.7152 9.82629 16.7152 9.82629C16.7251 9.64566 16.6224 9.65938 16.5567 9.69658C16.471 9.74892 16.4657 9.76668 16.3801 9.81902C16.271 9.8353 16.0595 9.90729 15.9549 9.74522C15.848 9.5504 15.8474 9.27874 15.7658 9.08217C15.7658 9.06791 15.6229 8.77318 15.7549 8.75427C15.8215 8.76665 15.9648 8.80365 15.9874 8.68404C16.0572 8.56738 15.8367 8.23653 15.6864 8.06962C15.5561 7.9266 15.3761 7.90917 15.2018 8.05523C15.0797 8.16757 15.0978 8.29304 15.0738 8.41198C15.0428 8.54855 15.0487 8.71781 15.1874 8.89837C15.3092 9.13875 15.5306 9.447 15.4576 9.88213C15.4576 9.88213 15.329 10.0892 15.1027 10.0623C15.0084 10.0417 14.8547 10.0009 14.7731 9.39748C14.7112 8.94069 14.7885 8.30078 14.5946 8.00114C14.5509 7.88812 14.5132 7.77839 14.4505 7.7868ZM13.829 7.83524C13.7703 7.84035 13.7053 7.90863 13.6524 8.04063C13.607 8.141 13.5515 8.66581 13.5605 8.66581C13.5242 8.82202 13.7237 8.88821 13.8145 8.6874C13.9507 8.31941 13.9514 8.16253 13.9605 8.00645C13.9393 7.88751 13.8876 7.83019 13.829 7.83524ZM16.1243 7.87668C16.0641 7.88206 16.0161 7.91738 15.9982 8.00638C15.9742 8.21561 15.9864 8.32944 16.0216 8.50368C16.0485 8.61979 16.2176 8.81428 16.3009 8.92703C16.6984 9.46146 17.081 9.99844 17.4504 10.554C17.5077 10.9583 17.5504 11.3645 17.5783 11.7719C17.6382 12.6531 17.6564 13.7501 17.6017 14.678C17.7668 14.6846 18.0314 14.4114 18.1242 14.0114C18.1846 13.4581 18.1027 12.3291 18.0972 12.0025C18.0933 11.867 18.085 11.7052 18.0756 11.5359C18.5261 12.272 18.9451 13.027 19.3313 13.7988C19.4805 13.7279 19.4474 12.888 19.3602 12.7701C19.0327 12.0651 18.5802 11.3693 18.4359 11.1017C18.3838 11.005 18.2065 10.7353 17.9963 10.4242C17.9576 9.98035 17.9156 9.60442 17.8882 9.49093C17.8206 9.02169 18.081 9.5438 18.0449 9.27107C17.9604 8.80258 17.7018 8.4841 17.3964 8.05496C17.2978 7.91536 17.2997 7.8869 17.1477 8.0892C17.0568 8.29539 17.058 8.46694 17.0846 8.62786C17.0345 8.55455 16.981 8.48361 16.9243 8.41528C16.6604 8.18897 16.6442 8.17659 16.4252 7.99192C16.3562 7.94288 16.2248 7.86753 16.1243 7.87668ZM22.9275 7.94691C22.8982 7.94234 22.8662 7.9568 22.8302 8.01002C22.7614 8.0703 22.6874 8.17955 22.6896 8.31988C22.7064 8.56712 22.7504 8.82034 22.7671 9.06757C22.7731 9.10067 22.7792 9.13357 22.7852 9.16666C22.7586 9.13276 22.7354 9.10632 22.7221 9.0928C22.2401 8.58649 22.9435 9.01005 22.6302 8.61898C22.3652 8.32802 22.2877 8.23545 22.0609 8.06047C21.9472 7.98694 21.8784 7.84654 21.841 8.0857C21.8262 8.2958 21.8108 8.53913 21.8249 8.71633C21.824 8.81475 21.926 9.00003 22.014 9.10908C22.3486 9.52087 22.6754 9.93894 22.9942 10.3631C23.0636 11.2576 23.0822 12.0776 23.1527 12.9736C23.1427 13.3569 23.0249 13.8659 22.913 13.9141C22.913 13.9141 22.7424 14.0122 22.6284 13.9034C22.5455 13.87 22.214 13.3502 22.214 13.3502C22.0443 13.1946 21.9312 13.2391 21.8104 13.3502C21.4774 13.6718 21.3269 14.274 21.1006 14.6889C21.0422 14.7814 20.8779 14.8602 20.6952 14.6817C20.2312 14.0477 20.5025 13.1453 20.4448 13.3772C20.0315 13.843 20.2145 14.6148 20.3079 14.7808C20.4441 15.0534 20.5543 15.2279 20.8195 15.3627C21.0611 15.5405 21.2491 15.4296 21.3528 15.305C21.5959 15.0532 21.599 14.4091 21.7131 14.2817C21.7932 14.0476 21.9937 14.0879 22.0915 14.1916C22.1864 14.3279 22.2982 14.4165 22.4374 14.4907C22.6641 14.6907 22.9347 14.727 23.2014 14.5448C23.3836 14.4425 23.5018 14.3097 23.6085 14.0475C23.723 13.7413 23.6664 12.1367 23.641 11.2441C23.8134 11.4876 23.9827 11.7333 24.1491 11.9809C24.2227 12.7645 24.2562 13.5362 24.232 14.2763C24.2145 14.4234 24.7454 13.837 24.7418 13.5591C24.7394 13.3161 24.7423 13.0958 24.7418 12.8907C24.9993 13.3018 25.2485 13.7198 25.4841 14.1429C25.6301 14.0656 25.5801 13.239 25.4877 13.125C25.2411 12.7111 24.9252 12.2638 24.6805 11.9178C24.6322 11.4811 24.5664 10.9658 24.5364 10.808C24.4898 10.5618 24.443 10.1921 24.3724 9.89989C24.3531 9.78586 24.2947 9.4215 24.313 9.38645C24.3418 9.30491 24.4505 9.38907 24.504 9.29455C24.5841 9.20723 24.2262 8.27992 24.0445 8.01533C23.9793 7.89673 23.8611 7.93777 23.7149 8.13064C23.5792 8.25752 23.6288 8.54707 23.6806 8.82249C23.8151 9.52436 23.9351 10.2392 24.0301 10.9521C23.8315 10.6565 23.6309 10.3622 23.4284 10.0693C23.4227 10.0399 23.4013 9.93204 23.4013 9.93056C23.4013 9.91798 23.3722 9.35638 23.3472 9.2225C23.3429 9.16821 23.3299 9.15254 23.3869 9.15947C23.4473 9.21026 23.4555 9.21302 23.4932 9.22977C23.5542 9.24087 23.6075 9.1378 23.5707 9.04234C23.3821 8.69453 23.1935 8.34518 23.0049 7.99737C22.9823 7.97503 22.9569 7.95149 22.9275 7.94691ZM5.37006 7.96494C5.26559 7.96198 5.15035 8.0267 5.19535 8.1523C5.16911 8.22079 5.39987 8.45214 5.44036 8.57929C5.47669 8.66984 5.40431 8.96141 5.47999 8.98832C5.54955 9.01846 5.64535 8.7865 5.68181 8.57209C5.70199 8.4547 5.68666 8.05274 5.41339 7.97032C5.39916 7.96712 5.38465 7.96532 5.37006 7.96494ZM25.3708 7.96723C25.347 7.96959 25.318 8.00813 25.2736 8.10238C25.1666 8.2775 25.1299 8.59113 25.1727 8.8681C25.4301 10.6094 25.6214 12.2956 25.6609 13.839C25.6387 13.9855 25.6323 14.0634 25.5637 14.248C25.4116 14.4427 25.2441 14.6869 25.0862 14.8047C24.9284 14.9224 24.5924 15.0345 24.4826 15.1218C24.1341 15.3232 24.1324 15.5548 24.4141 15.5632C24.8997 15.5068 25.4742 15.467 25.87 14.8696C25.9758 14.7021 26.1005 14.2482 26.106 13.9705C26.143 12.3419 26.0851 10.7496 25.8411 9.5726C25.8255 9.45789 25.7748 9.19438 25.7943 9.16C25.8257 9.07941 25.9845 9.16808 26.0411 9.07531C26.1241 8.99054 25.6303 8.3583 25.4574 8.08799C25.4228 8.02004 25.4015 7.9642 25.3708 7.96723ZM20.2793 7.99428C20.2593 7.99771 20.2297 8.02825 20.1748 8.10057C20.0392 8.54404 19.9915 8.90618 20.0433 9.1816C20.3917 10.9997 20.7486 12.656 20.6919 14.3866C20.8571 14.3878 21.0481 14.0087 21.1297 13.6336C21.1744 13.1168 21.0999 12.8022 21.0865 12.4985C21.0731 12.1947 20.7426 9.73029 20.6757 9.50048C20.595 9.06589 20.997 9.4433 20.9531 9.19061C20.8142 8.87194 20.4672 8.40801 20.3586 8.13118C20.3178 8.05704 20.3128 7.98856 20.2793 7.99428ZM7.88202 8.02852C7.83916 8.03592 7.79786 8.07117 7.78286 8.12943C7.77344 8.16751 7.79934 8.23094 7.76483 8.25012C7.74505 8.2701 7.66984 8.25664 7.67293 8.15102C7.67293 8.11739 7.64824 8.08227 7.63331 8.06088C7.6183 8.05112 7.60821 8.0483 7.5811 8.0483C7.548 8.04964 7.54881 8.05839 7.53065 8.08617C7.52257 8.11443 7.51214 8.14208 7.51214 8.17437C7.50811 8.21198 7.49297 8.22469 7.46532 8.23021C7.43438 8.23021 7.44178 8.23357 7.41668 8.21763C7.40181 8.20135 7.38426 8.19496 7.38426 8.16717C7.38426 8.13838 7.37672 8.0925 7.36804 8.07346C7.35492 8.05617 7.33414 8.04715 7.31039 8.04103C7.18082 8.0415 7.1714 8.19038 7.17887 8.24642C7.16918 8.25705 7.16434 8.52083 7.341 8.59416C7.57814 8.70725 8.02289 8.65941 8.00405 8.2771C8.00405 8.24326 7.99665 8.1297 7.99329 8.09869C7.96907 8.04231 7.9248 8.02105 7.88202 8.02852ZM11.0638 8.03208C10.9883 8.03625 10.9145 8.05653 10.8475 8.09155C10.6904 8.24205 10.6535 8.48336 10.7773 8.63385C10.8977 8.69077 11.0179 8.81199 10.9376 8.87886C10.597 9.24282 9.71033 9.85078 9.66566 9.96171C9.66533 9.96259 9.66405 9.96447 9.66391 9.96528C9.66378 9.96609 9.66391 9.96817 9.66391 9.96891V9.97073C9.66435 9.97198 9.66494 9.97318 9.66566 9.97429L9.66748 9.97611C9.66775 9.97631 9.66896 9.97591 9.66929 9.97611C9.66963 9.97631 9.67064 9.97779 9.67111 9.97792C9.67152 9.97799 9.67246 9.97779 9.67286 9.97792L9.67468 9.97967C9.71975 10.0099 10.2745 10.0092 10.3359 9.98149C10.3364 9.98129 10.3373 9.97994 10.3377 9.97967C10.3379 9.97961 10.3393 9.97981 10.3395 9.97967C10.3396 9.97961 10.3394 9.97806 10.3395 9.97792C10.5301 9.90762 11.4349 8.87348 11.4349 8.87348C11.388 8.83332 11.3448 8.80372 11.298 8.76356C11.2478 8.7201 11.2529 8.67745 11.298 8.63385C11.522 8.50347 11.4511 8.21655 11.3341 8.08617C11.237 8.04265 11.1457 8.02791 11.0638 8.03208ZM19.3803 8.03572C19.3565 8.03807 19.3275 8.07473 19.2831 8.16905C19.1761 8.34417 19.1034 8.64919 19.1119 8.93477C19.3435 10.5383 19.4146 11.9417 19.5659 13.5453C19.5783 13.7004 19.5555 13.9257 19.4525 14.0155C19.0711 14.4137 18.5212 14.9048 17.9228 15.1308C17.8584 15.2031 18.083 15.5112 18.3732 15.5109C18.8588 15.4546 19.2855 15.1821 19.6813 14.4641C19.7871 14.2967 19.9731 13.9384 19.9786 13.6606C20.0156 12.032 19.8965 10.7658 19.6525 9.58874C19.6369 9.47411 19.6475 9.33848 19.6669 9.30411C19.6983 9.26657 19.8049 9.30498 19.8615 9.21221C19.9444 9.12744 19.6398 8.42497 19.4669 8.15466C19.4323 8.08671 19.4109 8.03269 19.3803 8.03572ZM6.49644 8.08469C6.42943 8.09256 6.3664 8.14712 6.33605 8.21985C6.32482 8.47704 6.32334 8.73409 6.35227 8.97117C6.46933 9.38692 6.50633 9.75256 6.56311 10.1783C6.57885 10.7486 6.2338 10.425 6.24961 10.1423C6.32926 9.77503 6.30773 9.19694 6.23696 9.05041C6.18085 8.90389 6.11587 8.86776 5.9793 8.89185C5.87099 8.88525 5.59099 9.19028 5.51268 9.69544C5.51268 9.69544 5.44743 9.95472 5.41897 10.1855C5.38069 10.4464 5.20786 10.6311 5.08751 10.1495C4.98344 9.79938 4.91946 8.93692 4.74515 9.13875C4.69523 9.81216 4.63597 10.9972 5.2082 11.1188C5.90032 11.1854 5.518 9.9488 5.76853 9.72423C5.81589 9.61337 5.90368 9.61135 5.91088 9.75128V10.8017C5.90456 11.1432 6.12925 11.2446 6.30363 11.3152C6.48513 11.3011 6.60542 11.3061 6.6766 11.4827C6.70492 12.0882 6.73472 12.6952 6.76305 13.3006C6.76305 13.3006 7.18264 13.4212 7.20268 12.279C7.2228 11.6084 7.06914 11.0456 7.15943 10.9152C7.16265 10.787 7.32694 10.7806 7.4405 10.8431C7.6214 10.9708 7.70166 11.1278 7.9828 11.0647C8.41066 10.9469 8.66832 10.7392 8.67464 10.4107C8.64969 10.0985 8.61356 9.78599 8.47827 9.47384C8.49711 9.41706 8.3964 9.26932 8.41523 9.21261C8.49206 9.33303 8.60838 9.32294 8.63502 9.21261C8.56223 8.97264 8.44887 8.7427 8.26568 8.64327C8.11432 8.50987 7.89278 8.53805 7.81165 8.81616C7.77404 9.13673 7.92777 9.51649 8.16121 9.82696C8.21072 9.94819 8.28008 10.1499 8.24947 10.3314C8.12528 10.4022 8.00217 10.3728 7.8981 10.263C7.8981 10.263 7.55762 10.008 7.55762 9.95128C7.64797 9.37273 7.57713 9.30646 7.52694 9.14588C7.49196 8.92427 7.38701 8.85404 7.30178 8.70267C7.21661 8.61239 7.10103 8.61239 7.04593 8.70267C6.89544 8.96356 6.96601 9.52376 7.07473 9.77469C7.1533 10.0054 7.27386 10.1494 7.21708 10.1494C7.17039 10.2799 7.07298 10.2495 7.00268 10.099C6.90244 9.78794 6.88199 9.32429 6.88199 9.11533C6.85185 8.85619 6.81834 8.30266 6.64774 8.16226C6.60226 8.10023 6.54857 8.07857 6.49644 8.08469ZM8.92686 8.08832C8.89255 8.0927 8.85454 8.11221 8.8098 8.12257C8.6626 8.16939 8.52489 8.2966 8.56828 8.54417C8.74226 9.60105 8.85568 10.4077 9.02958 11.4647C9.05629 11.5885 8.95255 11.7516 8.81881 11.7349C8.59136 11.5811 8.53491 11.2694 8.14674 11.2827C7.8658 11.2861 7.54538 11.5918 7.50535 11.8863C7.45853 12.1203 7.44184 12.374 7.50535 12.5781C7.7028 12.8156 7.93934 12.7903 8.14674 12.7367C8.31735 12.6665 8.45768 12.4984 8.51789 12.5385C8.5181 12.5387 8.51958 12.5382 8.51971 12.5385C8.51991 12.5387 8.51951 12.5401 8.51971 12.5403C8.55691 12.6053 8.51621 13.1551 7.71612 13.5799C7.22448 13.8007 6.83308 13.8534 6.62251 13.4519C6.492 13.201 6.63193 12.2456 6.31083 12.4663C5.36091 14.9148 8.53613 15.2565 8.8908 12.5672C8.9138 12.4914 8.98377 12.4153 9.03315 12.434C9.05481 12.4432 9.07466 12.4726 9.08179 12.5276C9.00819 14.9627 6.6254 15.1296 6.22075 14.3635C6.12044 14.183 6.09023 13.7811 6.08014 13.5402C6.06184 13.3945 6.02525 13.3104 5.98286 13.2772C5.88633 13.2047 5.75662 13.3938 5.72884 13.7222C5.68874 13.9865 5.70004 14.059 5.70004 14.3131C5.82712 16.2365 8.89335 15.4101 9.39165 13.8213C9.63835 13 9.38667 12.3803 9.46915 12.3043C9.46983 12.3037 9.47198 12.303 9.47279 12.3025C9.47353 12.3021 9.47548 12.3011 9.47635 12.3007C9.47723 12.3004 9.47904 12.2992 9.47998 12.2989C9.4835 12.2979 9.48711 12.2973 9.49075 12.2971C9.79516 12.625 10.2223 12.3388 10.3159 12.225C10.3561 12.1682 10.4565 12.1316 10.5267 12.2052C10.7642 12.3759 11.1803 12.2954 11.2673 11.9944C11.3174 11.7001 11.3599 11.397 11.3699 11.0828C11.2152 11.1308 11.0905 11.1668 11.0402 11.2197C11.0282 11.2328 11.0194 11.2473 11.0168 11.263C11.0033 11.35 10.9906 11.4372 10.9771 11.5242C10.9758 11.5312 10.9734 11.5378 10.97 11.544C10.9634 11.5548 10.9525 11.5645 10.9411 11.571C10.8864 11.6009 10.7911 11.5838 10.7862 11.5044C10.7126 11.1699 10.4099 11.1264 10.2258 11.6449C10.102 11.7452 9.87636 11.7648 9.85289 11.6143C9.88303 11.2665 9.74283 11.2197 9.46196 11.3837C9.37161 10.6947 9.28206 10.0369 9.19165 9.34783C9.3087 9.34447 9.41614 9.4293 9.52317 9.29556C9.40733 8.93531 9.16225 8.20229 9.02413 8.13347L9.0205 8.13165C9.0119 8.12165 9.00225 8.1126 8.99171 8.10467C8.98337 8.09915 8.97426 8.09491 8.96466 8.09209C8.95244 8.08829 8.93957 8.08692 8.92686 8.08832ZM18.4018 8.09371C18.2803 8.09014 18.1458 8.1667 18.1981 8.31894C18.1677 8.40196 18.4592 8.68364 18.5062 8.83783C18.5909 9.07463 18.4417 9.30067 18.5297 9.3333C18.6107 9.36983 18.7234 9.08876 18.7657 8.82881C18.8146 8.61872 18.6647 8.18802 18.4522 8.09916C18.4356 8.09567 18.4187 8.0938 18.4018 8.09371ZM11.0203 8.35318C11.0757 8.34753 11.1425 8.39839 11.1752 8.47024C11.2102 8.54693 11.1927 8.62026 11.1356 8.63426C11.0786 8.64818 11.0048 8.59746 10.9698 8.5207C10.9349 8.444 10.9524 8.36893 11.0095 8.355C11.013 8.35406 11.0166 8.35352 11.0203 8.35318ZM24.7132 8.70812C24.6024 8.70422 24.4816 8.78831 24.5294 8.95314C24.5016 9.04301 24.7658 9.34837 24.8086 9.51528C24.8472 9.63402 24.75 10.0168 24.8302 10.0521C24.9041 10.0918 25.0079 9.78774 25.0465 9.50627C25.0678 9.35221 24.9536 8.81159 24.76 8.71532C24.7447 8.71108 24.729 8.70871 24.7132 8.70812ZM17.1426 8.89548C17.1527 8.94062 17.1628 8.9861 17.1696 9.03239C17.1923 9.13222 17.2119 9.23138 17.2327 9.32974C17.1452 9.20932 17.0728 9.11197 17.0417 9.07746C16.8438 8.84227 17.0461 8.923 17.1426 8.89548ZM18.8866 9.75309C18.8438 9.76049 18.8025 9.79756 18.7875 9.85575C18.7781 9.8939 18.8058 9.95552 18.7714 9.9747C18.7515 9.99468 18.6745 9.98304 18.6776 9.87742C18.6776 9.84378 18.6529 9.80678 18.638 9.78552C18.623 9.7757 18.6129 9.77287 18.5858 9.77287C18.5527 9.77422 18.5535 9.78296 18.5353 9.81075C18.5276 9.839 18.5173 9.86692 18.5173 9.89901C18.5132 9.93662 18.4999 9.94933 18.4722 9.95485C18.4413 9.95485 18.4468 9.95821 18.4217 9.94227C18.4069 9.92599 18.3893 9.9196 18.3893 9.89181C18.3893 9.86302 18.3818 9.81714 18.3732 9.7981C18.36 9.78081 18.3393 9.77361 18.3155 9.76749C18.186 9.76796 18.1784 9.91502 18.1858 9.97106C18.1761 9.98163 18.1695 10.2473 18.3461 10.3206C18.5833 10.4336 19.0298 10.3841 19.0109 10.0017C19.0109 9.9679 19.0017 9.85434 18.9983 9.82333C18.9741 9.76695 18.9294 9.74563 18.8866 9.75309ZM10.9234 9.83234C10.8942 9.82938 10.8559 9.84008 10.8117 9.86659C10.602 9.98001 10.5208 10.3165 10.6514 10.5134C10.7733 10.6868 10.9662 10.6233 10.9919 10.6233C11.1974 10.649 11.3198 10.2378 11.3198 10.2378C11.3198 10.2378 11.326 10.1221 11.082 10.3405C10.9793 10.3596 10.9653 10.3226 10.9396 10.2648C10.9182 10.1578 10.9228 10.0493 10.9721 9.94227C10.9948 9.87809 10.9722 9.83732 10.9234 9.83234ZM22.1804 9.88462C22.064 9.87896 21.9401 9.95431 21.9084 10.1134C21.9088 10.2073 21.9508 10.2589 21.9425 10.344C21.9304 10.3927 21.8803 10.4248 21.7606 10.3674C21.7793 10.3503 21.6831 10.2143 21.6831 10.2143C21.5898 10.1575 21.4652 10.2174 21.384 10.2702C21.3394 10.3513 21.3064 10.4904 21.357 10.6323C21.491 10.8798 21.9505 11.3022 22.1696 11.3062C22.1736 11.083 22.1954 10.7863 22.2074 10.6017C22.2126 10.532 22.2289 10.4552 22.2957 10.4377C22.3624 10.4203 22.4782 10.5049 22.4795 10.4324C22.4674 10.2904 22.439 10.0809 22.3588 9.98189C22.3177 9.92108 22.2503 9.88805 22.1804 9.88462ZM12.8623 10.6612C12.8592 10.6623 12.8562 10.6649 12.8533 10.6665C12.852 10.6674 12.8493 10.6692 12.8479 10.6702C12.8247 10.6875 12.7974 10.7278 12.7363 10.7711C12.6331 10.8883 12.6146 10.9701 12.621 11.2053C12.6268 11.2302 12.8167 11.7583 12.9776 12.1295C13.0862 12.5154 13.1865 12.9572 13.1128 13.3745C12.8588 13.9261 12.3481 14.4209 11.8552 14.6897C11.6041 14.7701 11.3872 14.7427 11.3292 14.6879L11.3273 14.6861C11.1831 14.5891 11.1798 14.4165 11.1886 14.387V14.3852L11.1904 14.3834C11.6063 14.0937 12.0814 13.8593 12.4534 13.0772C12.5632 12.7784 12.5967 12.5989 12.4876 12.1367C12.4451 11.9645 12.3925 11.8229 12.275 11.7008L12.2768 11.6989C12.3476 11.6651 12.5313 11.8004 12.5597 11.7151C12.5162 11.4945 12.3668 11.1983 12.1975 11.0467C12.0494 10.9122 11.8881 10.8966 11.7525 11.0197C11.5998 11.1047 11.5672 11.4101 11.6408 11.6773C11.7225 11.8784 11.9431 11.9137 12.1003 12.3187V12.3205C12.1035 12.3459 12.1542 12.6227 12.075 12.7349C12.0108 12.9352 11.1858 13.5858 11.1273 13.6249C11.1267 13.6256 11.1226 13.628 11.1219 13.6286L11.1201 13.6303L11.1183 13.6321L11.1165 13.6339H11.1129C11.1123 13.6334 11.1117 13.6328 11.1111 13.6321V13.6303L11.1093 13.6267C11.1068 13.6105 11.1112 13.5692 11.1093 13.5024C11.1039 13.3805 11.1544 13.1048 11.1507 13.0574V13.0556L11.1489 13.0538V13.052H11.1472C10.8744 13.2281 10.7844 13.7678 10.7346 13.9277C10.0441 14.4046 9.26013 14.7596 8.80852 15.2429C8.5734 15.6102 10.4289 14.8211 10.6445 14.7258C10.6464 14.7272 10.6482 14.7294 10.6499 14.7312C10.6909 14.7763 10.6944 14.9336 10.8175 15.0753C11.0103 15.3366 11.4202 15.4974 11.8192 15.3978C12.4882 15.156 12.8736 14.7001 13.266 14.1943C13.3221 14.1127 13.4099 14.0484 13.4912 14.1114C13.7609 14.715 14.5383 15.1446 15.5433 15.1889C15.7759 14.906 15.6646 14.767 15.5703 14.7078C15.5413 14.6885 15.0705 14.5049 14.9974 14.3222C14.9514 14.1522 15.0633 14.0014 15.2875 13.888C15.9328 13.81 16.5672 13.7233 17.1811 13.5259C17.1873 13.3196 17.3088 13.0113 17.3901 12.8773C17.4465 12.7843 17.4828 12.7751 17.4964 12.762L17.4982 12.7602C17.4983 12.7599 17.4998 12.7586 17.5 12.7584L17.5018 12.7566V12.753C17.5021 12.7469 17.5015 12.7408 17.5 12.735L17.3955 12.6737L15.3361 12.6647C15.3107 12.6549 15.2917 12.6451 15.2803 12.6359C15.2794 12.6352 15.2775 12.633 15.2767 12.6322L15.2749 12.6305L15.2731 12.6287L15.2713 12.625L15.2695 12.6233V12.6215L15.2677 12.6197V12.6053L15.2695 12.6034C15.2699 12.6025 15.2707 12.6007 15.2713 12.5999C15.2814 12.5864 15.3057 12.5736 15.3361 12.5621C15.8279 12.4951 16.7015 12.3518 16.7595 11.5116C16.7505 11.074 16.5722 10.7874 16.0353 10.7081C15.6407 10.7385 15.3593 11.1202 15.4046 11.5404C15.3858 11.6536 15.443 11.8757 15.3271 11.9008C14.5703 11.9699 13.7442 12.4442 13.7164 12.7836H13.7146L13.7128 12.7854L13.7093 12.7872H13.7056C13.7044 12.7876 13.7014 12.7886 13.7002 12.789H13.6894C13.6875 12.7886 13.6839 12.7876 13.6822 12.7872C13.633 12.7735 13.5696 12.6923 13.5795 12.5782C13.5507 11.9914 13.3597 11.3275 13.0606 10.8162C12.9539 10.7095 12.9074 10.6662 12.8769 10.6612C12.8759 10.6611 12.8742 10.6612 12.8732 10.6612L12.8623 10.6612ZM14.8335 10.971C14.7906 10.9784 14.7493 11.0137 14.7343 11.0719C14.7249 11.1101 14.7526 11.1735 14.7182 11.1926C14.6983 11.2126 14.6213 11.201 14.6245 11.0954C14.6245 11.0617 14.5997 11.0248 14.5848 11.0035C14.5698 10.9936 14.5615 10.9909 14.5343 10.9909C14.5013 10.9922 14.5002 11.001 14.4821 11.0287C14.4744 11.0569 14.4641 11.0849 14.4641 11.1169C14.46 11.1546 14.4467 11.1673 14.419 11.1728C14.3881 11.1728 14.3954 11.1761 14.3704 11.1602C14.3556 11.1439 14.3362 11.1375 14.3362 11.1097C14.3362 11.081 14.3304 11.0351 14.3217 11.0161C14.3086 10.9987 14.2861 10.9915 14.2623 10.9854C14.1327 10.9859 14.1251 11.133 14.1325 11.1891C14.1229 11.1996 14.1163 11.4652 14.2929 11.5386C14.5301 11.6516 15.0952 11.585 14.9577 11.2197C14.9577 11.1858 14.9485 11.0723 14.9451 11.0413C14.9209 10.985 14.8763 10.9636 14.8335 10.971ZM22.788 11.2971C22.7813 11.296 22.7745 11.2966 22.7681 11.2989C22.7681 11.2989 21.6693 12.0807 21.6421 12.1079C21.5331 12.2048 21.5876 12.5454 21.6421 12.506C21.7208 12.5363 22.8271 11.7867 22.806 11.6989C22.8543 11.7017 22.8774 11.3133 22.788 11.2971ZM15.8718 11.413C15.9166 11.4083 15.9754 11.4235 16.0321 11.4563C16.1142 11.5037 16.1647 11.5754 16.1582 11.6274C16.158 11.6288 16.1585 11.6315 16.1582 11.6328C16.1579 11.6342 16.1551 11.6368 16.1546 11.6382C16.1542 11.6395 16.1534 11.6424 16.1529 11.6436C16.1525 11.6445 16.1515 11.6464 16.151 11.6473L16.1492 11.6508C16.1461 11.6555 16.1425 11.6597 16.1385 11.6635C16.099 11.7003 16.0079 11.695 15.9222 11.6455C15.841 11.5984 15.7907 11.5262 15.7961 11.4742C15.7963 11.4729 15.7976 11.4702 15.7979 11.4689C15.7993 11.4625 15.8018 11.4564 15.8051 11.4508C15.8063 11.4488 15.8073 11.4455 15.8087 11.4436C15.809 11.4433 15.8102 11.4422 15.8105 11.4418C15.8129 11.439 15.8166 11.4352 15.8195 11.4329C15.8326 11.4226 15.8511 11.4152 15.8718 11.413ZM6.24873 11.6112C5.67932 11.6216 4.84553 12.3576 4.82359 12.7661C5.42435 12.4775 6.01455 12.1999 6.62527 11.9013C6.52671 11.7541 6.61928 11.6216 6.24873 11.6112ZM8.09366 11.8671C8.1495 11.8677 8.20837 11.8952 8.23965 11.9733C8.2677 12.045 8.24093 12.1199 8.20716 12.1571C8.20702 12.1574 8.20736 12.1586 8.20716 12.1589C8.20662 12.1598 8.20594 12.1617 8.20534 12.1625C8.18146 12.1933 8.09757 12.1806 8.03783 12.1806C7.96551 12.1773 7.92985 12.1655 7.88646 12.1067C7.86574 12.0413 7.92884 11.977 7.95676 11.9283C7.95703 11.9279 7.95824 11.9269 7.95851 11.9265C7.96154 11.922 7.96651 11.9165 7.97116 11.9121C7.99275 11.8923 8.03016 11.8738 8.07025 11.8689C8.07806 11.8679 8.08572 11.867 8.09366 11.8671ZM22.5741 12.0936C22.4728 12.1061 22.3766 12.2019 22.4209 12.3549C22.3932 12.4447 22.5582 12.7591 22.6011 12.926C22.6396 13.0448 22.5515 13.3808 22.6317 13.416C22.7056 13.4557 22.8998 13.2166 22.8929 12.917C22.9143 12.7629 22.838 12.1954 22.6444 12.0989C22.6215 12.0926 22.5976 12.0908 22.5741 12.0936ZM10.2758 12.6486C10.1864 12.6548 10.1066 12.7026 10.1426 12.8287C10.1372 12.9202 10.3954 13.0314 10.411 13.2432C10.4479 13.3304 10.3558 13.6099 10.4326 13.6359C10.5032 13.665 10.601 13.4427 10.638 13.2359C10.6584 13.1227 10.5494 12.7265 10.3642 12.6558C10.3352 12.6493 10.3055 12.6468 10.2758 12.6486ZM13.9568 13.1513C13.9635 13.1508 13.9695 13.1513 13.9765 13.1513H13.9802C14.2096 13.2136 14.5478 13.22 14.8414 13.2503C15.0805 13.2655 15.1986 13.4527 14.9747 13.5314C14.7538 13.607 14.5415 13.6662 14.5405 13.9855C14.5696 14.1436 14.5634 14.2266 14.5387 14.2646C14.5365 14.2678 14.5341 14.2708 14.5315 14.2737C14.5312 14.2741 14.53 14.2751 14.5297 14.2755L14.5279 14.2773L14.5261 14.2791L14.5243 14.2809L14.5207 14.2827C14.5173 14.2848 14.5137 14.2866 14.5099 14.2881C14.5068 14.2891 14.5023 14.2893 14.4991 14.2899C14.4466 14.2976 14.3703 14.2475 14.3135 14.2178C14.1773 14.12 13.795 13.8831 13.7406 13.3746C13.7328 13.2599 13.8187 13.1609 13.9568 13.1513ZM4.96622 13.5422C4.95182 13.5427 4.92316 13.5854 4.88508 13.6341C4.54636 14.1737 4.51622 14.9792 4.70311 15.2195C4.8024 15.3331 4.96615 15.383 5.08691 15.3475C5.29969 15.2552 5.39321 14.8242 5.34268 14.6665C5.27171 14.5553 5.2154 14.5377 5.14456 14.6322C4.99481 14.9363 4.93244 14.7283 4.91933 14.5584C4.89638 14.2361 4.9276 13.9394 4.96258 13.7044C4.98122 13.584 4.98055 13.5417 4.96622 13.5422ZM16.5062 14.2508C16.4788 14.2491 16.4515 14.2546 16.4269 14.2669C16.4215 14.2669 16.1845 14.4273 16.1081 14.5391C16.0614 14.5745 16.0667 14.6053 16.081 14.6669C16.1173 14.7504 16.1813 14.7243 16.254 14.685C16.3504 14.6719 16.397 14.735 16.3891 14.8507C16.3446 14.995 16.4089 15.0489 16.4089 15.0579C16.4089 15.067 16.5017 15.1467 16.6107 15.0832C16.8407 14.9953 16.9841 14.9099 17.3061 14.8399C17.3907 14.8382 17.3858 14.612 17.2521 14.6039C17.0776 14.6127 16.9166 14.6216 16.7422 14.7588C16.6349 14.7837 16.6165 14.7183 16.5926 14.6597C16.5654 14.5144 16.654 14.412 16.6359 14.303C16.6407 14.3078 16.5817 14.2548 16.5062 14.2508ZM23.8951 14.5264C23.8523 14.5278 23.8073 14.5337 23.742 14.5391C23.6714 14.554 23.6467 14.5849 23.6339 14.6706C23.6389 14.8004 23.7184 14.794 23.7997 14.8453C23.8468 14.9052 23.8774 14.9595 23.796 15.0579C23.719 15.1285 23.6642 15.1675 23.5871 15.2381C23.5507 15.3001 23.528 15.3955 23.6393 15.4255C23.8448 15.4832 24.3203 15.1743 24.3203 15.1678C24.3974 15.11 24.3718 15.0003 24.3654 15.0003C24.3204 14.9489 24.219 14.9797 24.151 14.9714C24.1185 14.9714 24.012 14.9557 24.0627 14.8615C24.1049 14.803 24.1206 14.768 24.1491 14.6957C24.1812 14.6252 24.153 14.5775 24.0375 14.539C23.9786 14.5284 23.9379 14.5251 23.8951 14.5264ZM20.8084 20.7761C20.8079 20.7763 20.807 20.7776 20.8066 20.7779C20.4648 20.8656 20.4754 21.2204 20.6949 21.3761C17.086 21.3761 11.548 21.3149 10.3603 21.3149C9.69587 21.3149 7.59368 21.2355 7.55332 21.2355C8.00412 21.895 8.65722 22.0292 9.51174 22.0427C11.1146 22.0427 18.5415 22.0229 20.6551 22.0229C20.5048 22.2897 20.6688 22.719 20.7866 22.7976C20.7891 22.7993 20.7932 22.8018 20.7957 22.803C20.8 22.8053 20.8059 22.8073 20.8101 22.8084C20.8114 22.8088 20.8141 22.8083 20.8154 22.8084C20.9554 22.8414 21.017 22.7401 21.0641 22.6661C21.2911 22.6861 22.5687 22.7046 22.6856 22.6643C22.686 22.6641 22.687 22.6627 22.6874 22.6625C22.7665 22.7789 22.845 22.8889 22.9955 22.8697C23.2589 22.8132 23.4664 22.7845 23.473 22.2499C23.473 22.2499 23.4461 21.3389 22.8477 21.3959C22.7062 21.4173 22.3091 21.4572 22.3091 21.4572C21.8494 21.4025 21.5123 21.3969 20.9956 21.378C21.0434 21.3174 21.1275 21.0722 21.0245 20.9833C20.9975 20.961 20.9575 20.9485 20.902 20.9527H20.9001C20.8993 20.9527 20.8973 20.9529 20.8966 20.9527C20.8962 20.9526 20.8951 20.951 20.8948 20.9509C20.8933 20.9504 20.8907 20.95 20.8894 20.9492C20.886 20.9465 20.883 20.9435 20.8804 20.9401C20.8797 20.9393 20.8773 20.9374 20.8767 20.9365C20.8506 20.8985 20.8364 20.8052 20.8191 20.7816L20.8173 20.7798L20.8155 20.778C20.8143 20.7773 20.8131 20.7767 20.8119 20.7762L20.8084 20.7761ZM21.0534 22.0788C21.0541 22.0785 21.0545 22.079 21.0552 22.0788C21.5817 22.1045 22.0764 22.0837 22.6028 22.1094C22.6863 22.1803 22.6446 22.3428 22.5902 22.3724C22.5873 22.3739 22.5843 22.3751 22.5813 22.376C22.5792 22.3765 22.576 22.376 22.574 22.376C22.572 22.376 22.5688 22.3765 22.5668 22.376C22.3956 22.3717 22.2966 22.3677 22.1254 22.3634C22.1253 22.3549 22.1241 22.3464 22.1218 22.3382C22.0812 22.2179 21.7874 22.226 21.7182 22.3202L21.7146 22.3256C21.7135 22.3275 21.7119 22.3308 21.711 22.3328C21.7097 22.3357 21.7085 22.3387 21.7074 22.3418C21.7063 22.3454 21.7061 22.3507 21.7056 22.3544C21.7051 22.3588 21.7034 22.3643 21.7038 22.3688C21.4727 22.3966 21.2647 22.3612 21.0336 22.3526C20.9658 22.2682 20.9737 22.1154 21.0534 22.0788Z" fill="white"/>
</g>
</g>
</g>
</svg>
