<svg width="31" height="31" viewBox="0 0 31 31" fill="none" xmlns="http://www.w3.org/2000/svg">
<g id="Group">
<g id="Group_2">
<path id="Vector" fill-rule="evenodd" clip-rule="evenodd" d="M15.5 0C6.93957 0 0 6.93957 0 15.5C0 24.0604 6.93957 31 15.5 31C24.0604 31 31 24.0604 31 15.5C31 6.93957 24.0604 0 15.5 0Z" fill="#E92B2B"/>
<path id="Vector_2" fill-rule="evenodd" clip-rule="evenodd" d="M28.9265 23.25H2.07375C2.91563 24.7045 3.98741 26.0131 5.24751 27.125H25.7527C27.0128 26.0131 28.0846 24.7045 28.9265 23.25ZM31 15.5H0C0 16.8381 0.169531 18.1365 0.488319 19.375H30.5117C30.8305 18.1365 31 16.8381 31 15.5ZM28.9267 7.75H2.07402C1.37171 8.9635 0.838358 10.2672 0.488734 11.625H30.5121C30.1625 10.2672 29.6291 8.9635 28.9267 7.75ZM25.7511 3.875H5.24592C7.97835 1.46337 11.5676 0 15.4985 0C19.4295 0 23.0187 1.46337 25.7511 3.875Z" fill="#FBFBFB"/>
<path id="Vector_3" fill-rule="evenodd" clip-rule="evenodd" d="M13.9504 0.0765991V15.5001H0C0 7.4627 6.11759 0.854021 13.9504 0.0765991Z" fill="#2A2FAF"/>
<path id="Vector_4" fill-rule="evenodd" clip-rule="evenodd" d="M2.36316 7.27103H3.02481L2.11377 7.93296L2.46176 9.00398L1.69486 8.44681C1.90039 8.04534 2.12337 7.65304 2.36316 7.27103ZM0.367188 12.1324C0.382831 12.0617 0.398977 11.9912 0.415625 11.9208H1.20211L1.55017 10.8498L1.89809 11.9208H3.02426L2.11315 12.5828L2.46121 13.6538L1.5501 12.9918L0.63906 13.6538L0.987049 12.5828L0.367188 12.1324ZM5.52108 3.63884C5.95276 3.27523 6.40392 2.93539 6.87255 2.62082H7.67398L6.76287 3.28275L7.11086 4.35377L6.19982 3.69184L5.28878 4.35377L5.52108 3.63884Z" fill="#FBFBFB"/>
</g>
<path id="Vector_5" d="M6.20072 6.20017L6.54871 7.2712H7.67488L6.76378 7.93313L7.11183 9.00415L6.20072 8.34222L5.28968 9.00415L5.63767 7.93313L4.72656 7.2712H5.85273L6.20072 6.20017ZM6.20072 10.8498L6.54871 11.9208H7.67488L6.76378 12.5828L7.11183 13.6538L6.20072 12.9919L5.28968 13.6538L5.63767 12.5828L4.72656 11.9208H5.85273L6.20072 10.8498ZM10.8499 1.5499L11.1979 2.62092H12.324L11.4129 3.28285L11.7609 4.35387L10.8499 3.69194L9.93878 4.35387L10.2868 3.28285L9.37573 2.62099H10.5019L10.8499 1.5499ZM10.8499 6.20017L11.1979 7.2712H12.324L11.4129 7.93313L11.7609 9.00415L10.8499 8.34222L9.93878 9.00415L10.2868 7.93313L9.37573 7.2712H10.5019L10.8499 6.20017ZM10.8499 10.8498L11.1979 11.9208H12.324L11.4129 12.5828L11.7609 13.6538L10.8499 12.9919L9.93878 13.6538L10.2868 12.5828L9.37573 11.9208H10.5019L10.8499 10.8498Z" fill="#FBFBFB"/>
</g>
</svg>
