<svg width="37" height="36" viewBox="0 0 37 36" fill="none" xmlns="http://www.w3.org/2000/svg">
<g clip-path="url(#clip0_798_7241)">
<path d="M18.668 36C28.6091 36 36.668 27.9411 36.668 18C36.668 8.05887 28.6091 0 18.668 0C8.72684 0 0.667969 8.05887 0.667969 18C0.667969 27.9411 8.72684 36 18.668 36Z" fill="#29A71A"/>
<path d="M26.6056 10.0637C24.7329 8.17228 22.2459 7.01232 19.5932 6.79307C16.9405 6.57383 14.2968 7.30972 12.139 8.86802C9.98109 10.4263 8.4511 12.7044 7.82496 15.2915C7.19883 17.8785 7.51777 20.6041 8.72426 22.9767L7.53994 28.7264C7.52765 28.7837 7.5273 28.8428 7.53892 28.9002C7.55053 28.9576 7.57386 29.0119 7.60744 29.0598C7.65663 29.1326 7.72685 29.1886 7.80872 29.2204C7.89059 29.2522 7.98022 29.2583 8.06562 29.2378L13.7009 27.9021C16.0668 29.0781 18.7731 29.3765 21.3384 28.7443C23.9037 28.1121 26.1615 26.5903 27.7101 24.4497C29.2587 22.3091 29.9976 19.6885 29.7953 17.0542C29.5931 14.42 28.4628 11.9429 26.6056 10.0637ZM24.8486 24.0873C23.5528 25.3795 21.8843 26.2324 20.0781 26.526C18.2719 26.8195 16.4191 26.5389 14.7808 25.7237L13.9954 25.3351L10.5406 26.1533L10.5508 26.1103L11.2668 22.633L10.8822 21.8742C10.0451 20.2302 9.74984 18.3634 10.0386 16.5413C10.3274 14.7193 11.1855 13.0353 12.4899 11.7308C14.129 10.0922 16.3517 9.17176 18.6693 9.17176C20.9868 9.17176 23.2095 10.0922 24.8486 11.7308C24.8625 11.7468 24.8776 11.7618 24.8936 11.7758C26.5123 13.4185 27.4159 15.6346 27.4075 17.9408C27.3991 20.2471 26.4793 22.4565 24.8486 24.0873Z" fill="white"/>
<path d="M24.5417 21.5366C24.1183 22.2034 23.4494 23.0195 22.6087 23.222C21.136 23.5779 18.8758 23.2343 16.0633 20.612L16.0285 20.5813C13.5555 18.2884 12.9133 16.38 13.0687 14.8663C13.1546 14.0072 13.8705 13.23 14.4739 12.7227C14.5693 12.6413 14.6825 12.5833 14.8043 12.5534C14.9261 12.5235 15.0532 12.5226 15.1754 12.5506C15.2977 12.5786 15.4117 12.6349 15.5083 12.7148C15.6049 12.7948 15.6815 12.8963 15.7319 13.0111L16.6421 15.0566C16.7013 15.1892 16.7232 15.3354 16.7055 15.4796C16.6879 15.6237 16.6313 15.7603 16.5419 15.8747L16.0817 16.472C15.9829 16.5953 15.9233 16.7454 15.9106 16.9029C15.8978 17.0603 15.9325 17.218 16.0101 17.3556C16.2678 17.8077 16.8855 18.4725 17.5708 19.0881C18.3399 19.7836 19.1928 20.4197 19.7328 20.6366C19.8773 20.6956 20.0362 20.71 20.1889 20.6779C20.3417 20.6458 20.4813 20.5687 20.5899 20.4566L21.1237 19.9186C21.2267 19.817 21.3548 19.7446 21.495 19.7086C21.6351 19.6727 21.7823 19.6746 21.9214 19.7141L24.0835 20.3277C24.2028 20.3643 24.3121 20.4276 24.4031 20.513C24.4941 20.5983 24.5644 20.7033 24.6086 20.8199C24.6528 20.9366 24.6698 21.0618 24.6582 21.186C24.6466 21.3102 24.6067 21.4301 24.5417 21.5366Z" fill="white"/>
</g>
<defs>
<clipPath id="clip0_798_7241">
<rect width="36" height="36" fill="white" transform="translate(0.667969)"/>
</clipPath>
</defs>
</svg>
